Patient4_TMGait_0pt5_01_right_11_EMG.mot
version=1
nRows=23
nColumns=33
inDegrees=no
endheader
time	1LAddLong	2LGlutMax	3LGlutMed	4LIliopsoas	5LSemiMemb	6LBicFemLong	7LRecFem	8LVastMed	9LVastLat	10LGasMed	11LTibAnt	12lTibPost	13LPeroneusLong	14LSol	15LExtDigLong	16LFlexDigLong	17RAddLong	18RGlutMax	19RGlutMed	20RIliopsoas	21RSemiMemb	22RBicFemLong	23RRecFem	24RVastMed	25RVastLat	26RGasMed	27RTibAnt	28RTibPost	29RPeroneusLong	30RSol	31RExtDigLong	32RFlexDigLong
15.075	-0.018768	-0.12253	0.070038	-0.025635	-0.010681	0.066376	0.094299	0.009308	-0.069733	0.072784	0.005646	-0.004883	-0.20676	0.082092	-0.019531	0.003357	-0.041809	-0.023956	-0.69992	-0.010376	-0.11719	0.33386	-0.25909	0.14816	0.087585	-0.025024	-1.019	-0.008087	-0.12314	0.24353	-0.002289	-0.014191
15.076	-0.027771	-0.14267	0.063782	0.021362	-0.02121	0.047913	0.11871	0.027008	-0.03418	0.065002	0.004425	-0.041962	-0.16602	0.02533	-0.055695	-0.000458	-0.032349	0.016327	-0.51163	-0.027313	0.46295	0.080872	-0.13443	0.1712	0.094604	-0.018768	0.19012	-0.005341	-0.092468	0.39825	-0.000458	-0.013275
15.077	-0.024109	-0.12955	0.067139	0.002441	-0.10544	0.002594	0.10712	0.014343	0.015869	-0.022278	0.003357	-0.059509	-0.11795	-0.00061	-0.069885	-0.014343	0.001221	0.002594	-0.12177	-0.011902	0.43381	-0.30304	-0.022888	0.059052	0.054932	-0.007172	0.4097	-0.009155	0.11948	0.2121	0.000763	-0.014801
15.078	-0.00885	-0.13153	0.057526	0.011139	-0.10559	-0.048523	0.088196	0.003052	0.029144	-0.016937	0.006714	-0.059204	0.071106	-0.018158	-0.084839	0.000763	0.025635	0.031891	0.16846	0.050507	0.047607	-0.38971	0.026398	0.027924	-0.029144	-0.012817	0.002136	-0.006409	0.31693	-0.051117	0.002441	-0.015106
15.079	0.024719	-0.10178	0.019531	0.005188	0.081329	-0.070953	0.075378	-0.0177	0.044556	0.097656	0.007172	-0.072327	0.016632	0.011902	-0.097656	0.006256	0.063019	0.019379	-0.38864	0.094147	-0.17609	-0.1535	0.047455	-0.10727	-0.058136	-0.007935	-0.13046	-0.016174	0.22446	-0.19577	0	-0.017548
15.08	0.032959	-0.055389	0.002289	-0.022583	0.15732	-0.011139	0.053711	-0.024872	0.044403	0.16159	0.01297	-0.089264	-0.072937	-0.007782	-0.04303	-0.001373	0.064697	-0.006561	-0.8876	0.067291	-0.026855	-0.005493	-0.084076	-0.1648	-0.09201	0.000458	0.018311	-0.016479	0.18097	-0.16342	-0.002594	-0.016632
15.081	0.021973	-0.056915	0.004883	-0.023651	0.10651	-0.011749	0.10437	-0.010376	0.034943	0.20981	0.013733	-0.083923	-0.062561	-0.004272	-0.020142	0.007629	0.021057	0.093689	-1.012	0.053101	-0.16998	-0.060577	-0.21271	-0.1561	-0.072632	0.005646	0.26779	-0.024567	-0.051117	-0.42053	-0.002747	-0.00824
15.082	0.011292	-0.041809	0.018005	-0.006561	0.10925	-0.006409	0.10849	-0.015564	-0.00351	0.24841	0.000763	-0.091705	-0.097656	-0.065613	-0.017395	0.007477	0.002441	0.11841	-0.6752	-0.062714	-0.16998	-0.33127	-0.26627	-0.26001	0.016479	-0.003815	0.22125	-0.024719	0.27374	-0.40588	0.000916	-0.019226
15.083	-0.003204	-0.068207	0.028076	0.025482	0.071411	0.021515	0.094452	-0.002747	-0.064392	0.11841	0.007782	-0.084686	-0.066681	-0.050659	0.011139	-0.003662	0.029755	0.003357	0.45715	-0.21378	-0.20508	-0.25726	-0.29266	-0.28656	-0.015717	-0.0177	0.2536	-0.049591	0.78674	-0.053711	-0.001984	-0.011902
15.084	-0.013428	-0.041962	0.01297	0.019684	-0.00473	0.023804	0.074615	0.003967	-0.059967	-0.11459	0.037537	-0.090027	0.021973	-0.021057	0.055237	0.003052	0.048218	0.004272	1.2022	-0.20187	-0.096893	0.050964	-0.27908	-0.18112	0.02533	-0.043182	0.12772	-0.1738	0.96252	-0.14404	-0.000916	-0.022888
15.085	-0.022888	-0.029144	-0.007629	-0.015564	-0.043335	0.028687	0.1088	0.005035	-0.036011	-0.18738	0.010986	-0.075684	0.03006	-0.015869	0.076599	0.008392	-0.005646	-0.03479	0.068512	0.039215	0.24735	0.19745	-0.2327	0.002289	0.15213	-0.068512	-0.12054	-0.0354	0.66788	0.43579	-0.002441	-0.025482
15.086	-0.025482	0.001831	-0.015106	0	-0.10727	0.063629	0.10971	0.007477	-0.016022	-0.2092	-0.025482	-0.043182	0.018616	-0.081177	0.066986	0.007629	-0.059204	0.054169	-0.11063	0.11597	0.14801	0.26367	-0.11856	0.023956	0.086517	-0.050354	-0.26947	0.055237	0.35812	0.32516	-0.000763	-0.039978
15.087	-0.016937	-0.010681	-0.03891	0.006256	-0.1564	0.024109	0.1416	0.005188	-0.032349	-0.19836	0.001373	-0.045013	0.006866	-0.079041	0.016937	0.002289	-0.046082	0.03952	0.13046	0.11566	0.046997	0.20432	-0.10376	0.017395	0.048523	-0.04776	-0.21393	0.12421	-0.076904	0.041962	-0.000916	-0.035553
15.088	-0.008698	-0.010529	-0.036926	0.007019	-0.084534	-0.025177	0.12894	0.004272	-0.016785	-0.077209	-0.019684	-0.038452	-0.013275	-0.004578	-0.027466	0.003662	-0.013733	0.056763	0.010223	0.014496	0.13779	0.00885	-0.15778	-0.036926	0.030518	-0.065765	-0.030975	0.07019	-0.1033	-0.074005	-0.002289	-0.033264
15.089	0.015106	0.024567	-0.028076	-0.008545	-0.070801	-0.080872	0.11658	0.001221	-0.011444	-0.039215	0.006866	-0.036011	-0.004272	0.028381	-0.037994	0.000916	0.016174	0.063019	-0.2121	-0.070801	0.11887	-0.21393	-0.086212	-0.042267	0.022583	-0.032043	-0.032501	0.051117	-0.024719	-0.10864	-0.001068	-0.032959
15.09	0.014648	0.016937	0.006714	0.00412	0.065918	-0.088348	0.10208	0.001221	-0.007629	-0.014954	0.018311	-0.049896	0.021973	0.043335	-0.029602	-0.001373	0.027771	0.050507	-0.22675	-0.18295	0.24612	-0.33432	-0.16754	-0.05722	0.054016	-0.021667	-0.039215	-0.035858	-0.02533	0.53513	-0.007019	-0.029144
15.091	0.031891	0.037689	-0.008698	0.001984	0.1503	-0.093536	0.11978	-0.009613	-0.006409	0.006104	-0.003967	-0.049744	0.090942	0.074615	-0.02243	0.007782	0.010986	0.093994	0.013733	-0.16922	0.25055	-0.28656	-0.31952	-0.080414	0.082855	-0.034027	-0.081177	-0.019073	0.10422	0.8847	-0.000763	-0.022736
15.092	0.017548	0.039215	0.046387	0.018616	0.13367	-0.067902	0.12299	-0.004272	-0.013123	0.021362	-0.002136	-0.053253	0.10986	0.10315	-0.022583	-0.001221	0.037384	0.10727	-0.21423	-0.032043	0.16678	-0.11932	-0.15839	-0.092163	0.084991	-0.025635	0.00412	0.001984	0.10834	0.72464	-0.002136	-0.010071
15.093	0.011597	0.039215	0.014191	0.036469	0.089264	-0.043182	0.12863	0.007019	-0.007019	0.011749	0.002136	-0.077667	0.16769	0.069733	-0.018311	0.005646	0.044403	0.12863	-0.65277	0.14694	0.10696	0.049286	-0.034637	-0.026093	0.11932	0.00351	-0.046387	0.007782	-0.018158	0.37445	-0.002136	-0.014496
15.094	-0.001678	0.01297	0.021057	0.021362	0.031281	-0.016022	0.15045	0.006104	-0.017853	-0.037231	0.001373	-0.055847	0.21652	0.054169	0.007629	0.007782	0.023499	0.12558	-0.22278	0.17792	-0.11368	0.22064	-0.091248	0.026398	0.19547	-0.006561	-0.22186	0.015106	-0.10712	-0.059509	-0.002594	-0.017853
15.095	-0.024719	0.01358	-0.000458	-0.004425	-0.007629	0.023804	0.16495	0.007019	-0.022888	-0.064545	-0.004578	-0.07309	0.23407	0.032501	0.083466	0.011749	-0.008392	0.1799	-0.20264	0.17136	-0.3537	0.25894	-0.28961	-0.009003	0.1471	-0.002289	0.050964	0.034332	-0.21423	-0.18662	-0.001831	-0.019226
15.096	-0.037537	0.07843	-0.013885	-0.008545	-0.05249	0.076447	0.16754	0.011292	-0.028229	-0.027313	0.009613	-0.048523	0.079803	0.0737	0.12665	0.011139	-0.010986	0.1506	0.26764	0.1236	-0.12512	0.17654	-0.34485	0.040131	-0.36041	0.021057	0.26504	0.007629	-0.14694	-0.48752	-0.002289	-0.010071
15.097	-0.020905	0.11734	0.006561	0.001984	-0.049591	0.085754	0.17273	0.00412	-0.009766	0.075989	-0.010529	-0.065765	0.2861	0.054779	0.097046	0.01709	0.036621	0.23148	-0.17944	0.08728	0.15854	-0.041351	-0.19882	0.092163	-0.30624	0.008698	0.083313	-0.031128	0.028839	-0.65857	-0.001068	-0.00885
